<svg width="66" height="66" viewBox="0 0 66 66" fill="none" xmlns="http://www.w3.org/2000/svg">
<g clip-path="url(#clip0_13_270)">
<path d="M41.4832 9.01318H45.5457V13.0757H41.4832V9.01318ZM49.6082 9.01318H53.6707V13.0757H49.6082V9.01318ZM41.4832 17.1382H45.5457V21.2007H41.4832V17.1382ZM49.6082 17.1382H53.6707V21.2007H49.6082V17.1382ZM41.4832 25.2632H45.5457V29.3257H41.4832V25.2632ZM49.6082 25.2632H53.6707V29.3257H49.6082V25.2632ZM41.4832 33.3882H45.5457V37.4507H41.4832V33.3882ZM49.6082 33.3882H53.6707V37.4507H49.6082V33.3882ZM41.4832 41.5132H45.5457V45.5757H41.4832V41.5132ZM49.6082 41.5132H53.6707V45.5757H49.6082V41.5132ZM57.7332 0.888184H37.4207C36.3432 0.888184 35.3099 1.3162 34.548 2.07806C33.7862 2.83993 33.3582 3.87324 33.3582 4.95068V17.1382H13.0457C11.9682 17.1382 10.9349 17.5662 10.173 18.3281C9.41117 19.0899 8.98315 20.1232 8.98315 21.2007V61.8257C8.98315 62.9031 9.41117 63.9364 10.173 64.6983C10.9349 65.4602 11.9682 65.8882 13.0457 65.8882H57.7332C58.8106 65.8882 59.8439 65.4602 60.6058 64.6983C61.3676 63.9364 61.7957 62.9031 61.7957 61.8257V4.95068C61.7957 3.87324 61.3676 2.83993 60.6058 2.07806C59.8439 1.3162 58.8106 0.888184 57.7332 0.888184ZM25.2332 61.8257H21.1707V53.7007H25.2332V61.8257ZM29.2957 61.8257V49.6382H17.1082V61.8257H13.0457V21.2007H33.3582V61.8257H29.2957ZM49.6082 61.8257H45.5457V53.7007H49.6082V61.8257ZM57.7332 61.8257H53.6707V49.6382H41.4832V61.8257H37.4207V4.95068H57.7332V61.8257ZM17.1082 25.2632H21.1707V29.3257H17.1082V25.2632ZM25.2332 25.2632H29.2957V29.3257H25.2332V25.2632ZM17.1082 33.3882H21.1707V37.4507H17.1082V33.3882ZM25.2332 33.3882H29.2957V37.4507H25.2332V33.3882ZM17.1082 41.5132H21.1707V45.5757H17.1082V41.5132ZM25.2332 41.5132H29.2957V45.5757H25.2332V41.5132Z" fill="#FE9A3C"/>
</g>
<defs>
<clipPath id="clip0_13_270">
<rect width="65" height="65" fill="white" transform="translate(0.858154 0.888184)"/>
</clipPath>
</defs>
</svg>
