<svg width="66" height="66" viewBox="0 0 66 66" fill="none" xmlns="http://www.w3.org/2000/svg">
<g clip-path="url(#clip0_11_261)">
<path d="M65.5779 50.01C65.5017 50.5305 65.3748 51.0383 65.1843 51.4319C64.8416 52.1301 64.5115 52.1936 63.2166 52.1301C61.5408 52.054 59.1414 52.1301 56.6023 52.2317C56.6023 52.9299 56.6277 53.26 56.6277 53.26C56.7927 55.177 57.656 55.2405 57.9988 55.2405H63.4578C63.9402 55.2405 64.3845 55.2405 64.7273 55.012C65.1716 54.72 65.3621 53.8694 65.5271 52.384C65.5525 52.1682 65.5652 51.8889 65.5779 51.5588V51.5461C65.5779 51.4446 65.5906 51.3176 65.5906 51.178V51.0383C65.5906 50.6956 65.5906 50.3147 65.5779 50.01ZM1.36499 50.01C1.44116 50.5305 1.56812 51.0383 1.75854 51.4319C2.10132 52.1301 2.4314 52.1936 3.72632 52.1301C5.4021 52.054 7.80151 52.1301 10.3406 52.2317C10.3406 52.9299 10.3152 53.26 10.3152 53.26C10.1501 55.177 9.28687 55.2405 8.94409 55.2405H3.48511C3.00269 55.2405 2.59644 55.2405 2.21558 55.012C1.75854 54.7454 1.58081 53.8694 1.41577 52.384C1.39038 52.1682 1.37769 51.8889 1.36499 51.5588V51.5461C1.36499 51.4446 1.35229 51.3176 1.35229 51.178V51.0383C1.36499 50.6956 1.36499 50.3147 1.36499 50.01Z" fill="#FE9A3C"/>
<path d="M65.9841 38.0383C65.9841 34.1409 65.4763 30.3323 65.2732 29.9133C65.1208 29.6086 64.1433 28.8088 61.9216 27.2981C59.6746 25.762 59.7253 25.9905 59.3191 24.9875C59.6873 24.8733 60.0427 24.6575 60.2585 24.6321C60.741 24.5813 60.7664 25.0383 61.7693 25.0383C62.7722 25.0383 64.9431 24.7717 65.3875 24.3274C65.8318 23.8831 65.9714 23.7307 65.9714 23.3372C65.9714 22.9436 65.7429 22.1311 65.3113 21.6487C64.8796 21.1663 63.0388 20.925 61.9597 20.7854C60.8806 20.6458 60.7283 20.7854 60.449 20.9631C60.0046 21.2424 59.9792 23.7942 59.9792 23.7942L58.9255 23.8196C58.24 22.1311 57.2878 18.7288 55.8025 16.05C54.1775 13.1301 52.4763 12.2161 51.7654 11.9875C51.0671 11.7717 50.4324 11.6194 45.6716 11.137C40.8093 10.6292 36.9373 10.5657 33.4841 10.5657C30.031 10.5657 26.1589 10.6418 21.2966 11.137C16.5359 11.6321 15.9011 11.7717 15.2029 11.9875C14.5046 12.2034 12.7908 13.1301 11.1658 16.05C9.68042 18.7288 8.72827 22.1311 8.04272 23.8196L6.98901 23.7942C6.98901 23.7942 6.97632 21.2424 6.51929 20.9631C6.23999 20.7854 6.08765 20.6331 5.00854 20.7854C3.92944 20.9377 2.08862 21.1663 1.65698 21.6487C1.22534 22.1311 0.996826 22.9436 0.996826 23.3372C0.996826 23.7307 1.13647 23.8958 1.58081 24.3274C2.02515 24.7717 4.19604 25.0383 5.19897 25.0383C6.2019 25.0383 6.22729 24.5813 6.70972 24.6321C6.92554 24.6575 7.2937 24.8733 7.64917 24.9875C7.23022 25.9905 7.2937 25.762 5.04663 27.2981C2.82495 28.8215 1.83472 29.6086 1.69507 29.9133C1.49194 30.3323 0.984131 34.1409 0.984131 38.0383C0.984131 41.9358 1.26343 45.4397 1.26343 46.6838C1.26343 47.2043 1.26343 48.1184 1.37769 48.9944C1.45386 49.5149 1.56812 50.0227 1.77124 50.4163C2.11401 51.1145 2.4314 51.178 3.73901 51.1145C5.41479 51.0383 7.8396 51.1145 10.3406 51.2161C12.0164 51.2795 13.7302 51.343 15.2537 51.3811C19.0623 51.4573 17.9451 50.8225 19.5701 50.8479C21.1951 50.8733 27.6062 51.1399 33.4714 51.1399C39.3367 51.1399 45.7605 50.8733 47.3728 50.8479C48.9978 50.8225 47.8806 51.4573 51.6892 51.3811C53.2126 51.3557 54.9265 51.2795 56.6023 51.2161C59.1033 51.1272 61.5408 51.0383 63.2039 51.1145C64.5115 51.178 64.8289 51.1145 65.1716 50.4163C65.3621 50.0227 65.489 49.5149 65.5652 48.9944C65.6921 48.1184 65.6794 47.2043 65.6794 46.6838C65.7048 45.4524 65.9841 41.9358 65.9841 38.0383ZM11.9275 18.8176C12.5369 17.3958 14.365 14.5393 15.2537 14.0315C15.4695 13.9045 17.3611 13.3079 22.0964 12.9905C26.4509 12.6985 31.2625 12.5842 33.4968 12.5842C35.7312 12.5842 40.5427 12.6985 44.8972 12.9905C49.6199 13.3079 51.5369 13.8918 51.74 14.0315C52.8826 14.8186 54.4568 17.3958 55.0662 18.8176C55.6755 20.2395 56.488 23.0325 56.3357 23.4133C56.1833 23.7942 56.488 23.9846 54.4314 23.8196C52.3875 23.6672 39.5525 23.5022 33.5095 23.5022C27.4792 23.5022 14.6443 23.6672 12.5876 23.8196C10.531 23.9719 10.8357 23.7942 10.6833 23.4133C10.5056 23.0325 11.3181 20.2522 11.9275 18.8176ZM16.5994 34.7122C15.6853 34.9407 15.1394 35.4358 13.9968 35.4231C12.8542 35.4231 9.76929 34.9026 9.10913 34.8772C8.44897 34.8518 7.86499 35.3215 7.52222 35.4104C7.17944 35.4993 6.50659 35.2581 5.49097 34.9407C4.47534 34.6233 3.87866 34.7122 3.54858 33.3284C3.20581 31.9573 3.54858 29.9895 3.54858 29.9895C5.74487 29.8879 7.86499 30.0911 11.8386 31.2083C15.8123 32.3254 18.0212 34.4709 18.0212 34.4709C18.0212 34.4709 17.5134 34.4836 16.5994 34.7122ZM46.4587 44.7161C44.6433 44.9573 37.0388 45.0208 33.4841 45.0208C29.9294 45.0208 22.325 44.9446 20.5095 44.7161C18.656 44.4749 16.2439 42.2532 17.907 40.4885C20.1541 38.0891 19.7351 38.1653 24.8386 37.5051C29.2566 36.9338 32.6082 36.9084 33.4841 36.9084C34.3474 36.9084 37.7117 36.9465 42.1296 37.5051C47.2332 38.1653 46.8142 38.0891 49.0613 40.4885C50.7244 42.2532 48.3123 44.4749 46.4587 44.7161ZM63.4197 33.3411C63.0769 34.7122 62.4929 34.636 61.4773 34.9534C60.4617 35.2708 59.7888 35.4993 59.446 35.4231C59.1033 35.3469 58.5193 34.8772 57.8591 34.8899C57.199 34.9153 54.114 35.4358 52.9714 35.4358C51.8289 35.4358 51.283 34.9534 50.3689 34.7249C49.4548 34.4963 48.947 34.4963 48.947 34.4963C48.947 34.4963 51.1433 32.3381 55.1296 31.2336C59.1033 30.1165 61.2234 29.9133 63.4197 30.0149C63.4197 29.9895 63.7625 31.9573 63.4197 33.3411Z" fill="#FE9A3C"/>
</g>
<defs>
<clipPath id="clip0_11_261">
<rect width="65" height="65" fill="white" transform="translate(0.984131 0.384033)"/>
</clipPath>
</defs>
</svg>
