<svg width="66" height="65" viewBox="0 0 66 65" fill="none" xmlns="http://www.w3.org/2000/svg">
<g clip-path="url(#clip0_15_277)">
<path d="M37.18 26.8458H28.82C28.5109 26.8458 28.2144 26.9521 27.9959 27.1412C27.7773 27.3303 27.6545 27.5868 27.6545 27.8543C27.6545 28.1218 27.7773 28.3783 27.9959 28.5674C28.2144 28.7565 28.5109 28.8628 28.82 28.8628H37.18C37.4891 28.8628 37.7855 28.7565 38.0041 28.5674C38.2226 28.3783 38.3454 28.1218 38.3454 27.8543C38.3454 27.5868 38.2226 27.3303 38.0041 27.1412C37.7855 26.9521 37.4891 26.8458 37.18 26.8458Z" fill="#FE9A3C"/>
<path d="M64.3346 0H1.66543C1.35634 0 1.05991 0.10625 0.841347 0.295377C0.622786 0.484504 0.5 0.741016 0.5 1.00848L0.5 63.9781C0.5 64.2455 0.622786 64.5021 0.841347 64.6912C1.05991 64.8803 1.35634 64.9866 1.66543 64.9866C1.97452 64.9866 2.27096 64.8803 2.48952 64.6912C2.70808 64.5021 2.83086 64.2455 2.83086 63.9781V59.8366H63.1691V63.9646C63.1691 64.2321 63.2919 64.4886 63.5105 64.6777C63.729 64.8669 64.0255 64.9731 64.3346 64.9731C64.6437 64.9731 64.9401 64.8669 65.1586 64.6777C65.3772 64.4886 65.5 64.2321 65.5 63.9646V1.00848C65.5 0.741016 65.3772 0.484504 65.1586 0.295377C64.9401 0.10625 64.6437 0 64.3346 0ZM2.83086 36.1507V20.0957H63.1691V36.1507H2.83086ZM63.1691 2.01696V18.0787H2.83086V2.01696H63.1691ZM2.83086 56.7573V38.1677H31.8346V57.8196H2.83086V56.7573ZM34.1654 57.8196V38.1677H63.1691V57.8196H34.1654Z" fill="#FE9A3C"/>
<path d="M28.82 10.7572H37.18C37.4891 10.7572 37.7855 10.6509 38.0041 10.4618C38.2226 10.2727 38.3454 10.0162 38.3454 9.74872C38.3454 9.48125 38.2226 9.22474 38.0041 9.03561C37.7855 8.84648 37.4891 8.74023 37.18 8.74023H28.82C28.5109 8.74023 28.2144 8.84648 27.9959 9.03561C27.7773 9.22474 27.6545 9.48125 27.6545 9.74872C27.6545 10.0162 27.7773 10.2727 27.9959 10.4618C28.2144 10.6509 28.5109 10.7572 28.82 10.7572Z" fill="#FE9A3C"/>
</g>
<defs>
<clipPath id="clip0_15_277">
<rect width="65" height="65" fill="white" transform="translate(0.5)"/>
</clipPath>
</defs>
</svg>
