<svg width="57" height="58" viewBox="0 0 57 58" fill="none" xmlns="http://www.w3.org/2000/svg">
<path d="M55.5242 23.2697L29.5242 0.925911C29.1631 0.615518 28.7053 0.44519 28.2322 0.44519C27.7591 0.44519 27.3013 0.615518 26.9402 0.925911L0.940213 23.2697C0.739553 23.442 0.574277 23.6528 0.45382 23.8899C0.333364 24.1271 0.260087 24.3861 0.238172 24.6521C0.216257 24.918 0.246134 25.1857 0.326098 25.44C0.406061 25.6942 0.534545 25.9299 0.704213 26.1337C0.873881 26.3375 1.08141 26.5054 1.31495 26.6277C1.54849 26.7501 1.80347 26.8245 2.06534 26.8467C2.3272 26.869 2.59081 26.8386 2.84112 26.7574C3.09144 26.6762 3.32355 26.5457 3.52421 26.3734L6.23221 24.0456V51.2278C6.23221 52.8439 6.86435 54.3939 7.98957 55.5367C9.11479 56.6795 10.6409 57.3215 12.2322 57.3215H24.2322C24.7626 57.3215 25.2714 57.1075 25.6464 56.7266C26.0215 56.3457 26.2322 55.829 26.2322 55.2903C26.2322 54.7516 26.0215 54.2349 25.6464 53.854C25.2714 53.473 24.7626 53.259 24.2322 53.259H12.2322C11.7018 53.259 11.1931 53.045 10.818 52.6641C10.4429 52.2832 10.2322 51.7665 10.2322 51.2278V20.759C10.2322 20.7123 10.2102 20.6737 10.2062 20.629L28.2322 5.13872L52.9402 26.3734C53.1409 26.5457 53.373 26.6762 53.6233 26.7574C53.8736 26.8386 54.1372 26.869 54.3991 26.8467C54.6609 26.8245 54.9159 26.7501 55.1495 26.6277C55.383 26.5054 55.5905 26.3375 55.7602 26.1337C55.9299 25.9299 56.0584 25.6942 56.1383 25.44C56.2183 25.1857 56.2482 24.918 56.2262 24.6521C56.2043 24.3861 56.1311 24.1271 56.0106 23.8899C55.8901 23.6528 55.7249 23.442 55.5242 23.2697Z" fill="#FE9A3C"/>
<path d="M54.3003 38.896L44.7923 29.2395C44.2803 28.7192 43.6388 28.35 42.9363 28.171L33.2583 25.7112C32.5874 25.5457 31.886 25.5573 31.2208 25.7451C30.5556 25.9328 29.9489 26.2903 29.4583 26.7837L25.4043 30.901C24.916 31.3974 24.5626 32.0139 24.3786 32.6902C24.1946 33.3666 24.1862 34.0798 24.3543 34.7604L26.7723 44.5856C26.9453 45.3015 27.3093 45.9551 27.8243 46.4746L37.3323 56.1312C38.0824 56.8928 39.0996 57.3206 40.1603 57.3206C41.2209 57.3206 42.2382 56.8928 42.9883 56.1312L54.2983 44.6424C54.6699 44.2652 54.9647 43.8173 55.1658 43.3243C55.3669 42.8313 55.4704 42.3029 55.4704 41.7692C55.4704 41.2356 55.3669 40.7072 55.1658 40.2142C54.9647 39.7212 54.6719 39.2733 54.3003 38.896ZM40.1603 53.259L30.6503 43.6024L28.2323 33.7732L32.2883 29.6538L41.9643 32.1117L51.4703 41.7702L40.1603 53.259Z" fill="#FE9A3C"/>
<path d="M33.0882 34.5878C32.8084 34.8718 32.6179 35.2338 32.5407 35.6278C32.4635 36.0218 32.503 36.4303 32.6544 36.8015C32.8057 37.1727 33.0621 37.4899 33.391 37.7132C33.7199 37.9364 34.1066 38.0555 34.5022 38.0555C34.8978 38.0555 35.2845 37.9364 35.6134 37.7132C35.9423 37.4899 36.1987 37.1727 36.35 36.8015C36.5014 36.4303 36.5409 36.0218 36.4637 35.6278C36.3865 35.2338 36.196 34.8718 35.9162 34.5878C35.5411 34.207 35.0325 33.993 34.5022 33.993C33.9719 33.993 33.4633 34.207 33.0882 34.5878Z" fill="#FE9A3C"/>
</svg>
