<svg width="66" height="66" viewBox="0 0 66 66" fill="none" xmlns="http://www.w3.org/2000/svg">
<path d="M43.5832 12.175L44.3449 5.02656C44.3449 5.02656 39.3315 1.60645 32.9712 1.60645C26.6109 1.60645 21.7876 5.0192 21.7876 5.0192L22.5477 12.175H43.5832ZM44.0088 17.634H22.1226C21.9058 18.6496 21.7876 19.5664 21.7876 20.571C21.7876 27.7777 26.8388 33.1638 33.0646 33.1638C39.2932 33.1638 44.3449 27.7728 44.3449 20.5663C44.3449 19.5614 44.2262 18.6496 44.0088 17.634Z" fill="#FE9A3C"/>
<path d="M24.7809 33.1759C19.182 28.0928 20.4317 19.3003 20.4317 19.3003C20.8268 16.0047 22.5558 15.9836 22.5558 15.9836H43.6613C43.6613 15.9836 45.3904 16.0047 45.7855 19.3003C45.7855 19.3003 47.0352 28.0823 41.4364 33.1651C41.4364 33.1651 50.659 30.9556 51.7291 27.0859C52.7998 23.2163 47.3982 14.0793 43.883 13.4446H22.3344C18.8193 14.0793 13.4174 23.2215 14.4878 27.0913C15.5582 30.9612 24.7809 33.1759 24.7809 33.1759ZM14.4412 46.3581V61.098C14.4412 61.098 14.822 63.221 20.1541 64.673V37.605C16.5994 39.6047 14.4412 42.7799 14.4412 46.3581ZM46.1795 37.1837V64.8781C52.1462 63.4311 52.6541 61.098 52.6541 61.098V46.3581C52.6541 42.518 50.115 39.1409 46.1795 37.1837ZM38.9486 42.1475L33.3626 35.4255L32.8463 35.4261L26.8383 42.1475C26.8383 42.1475 23.5818 39.7705 23.074 36.8084V51.507C24.9783 52.1203 28.6816 53.0072 33.1477 53.0072C37.7415 53.0072 41.3552 52.0693 43.3865 51.4556V36.7643C42.7517 39.7469 38.9486 42.1475 38.9486 42.1475Z" fill="#FE9A3C"/>
</svg>
