<svg width="66" height="66" viewBox="0 0 66 66" fill="none" xmlns="http://www.w3.org/2000/svg">
<g clip-path="url(#clip0_15_275)">
<path d="M58.5549 35.8717C58.2534 35.7368 57.9342 35.6456 57.6069 35.6009C57.3396 35.6022 57.0786 35.6827 56.8569 35.8321C56.6352 35.9815 56.4627 36.1932 56.3611 36.4405C56.1707 38.5837 56.1345 40.7379 56.2528 42.8863L52.1903 44.9176L48.1278 42.8863C48.1278 31.9176 48.1278 34.5582 48.1278 34.152C48.1097 33.9222 48.0333 33.7009 47.9058 33.5089C47.7784 33.3169 47.604 33.1607 47.3993 33.0549C47.1945 32.9492 46.9662 32.8974 46.7358 32.9045C46.5055 32.9117 46.2808 32.9775 46.083 33.0957C44.7288 33.9082 45.433 33.854 45.433 31.5384H46.7871C47.6211 31.5296 48.4322 31.2643 49.1101 30.7785C49.7881 30.2928 50.3001 29.6101 50.5767 28.8233C50.8533 28.0365 50.881 27.1836 50.6561 26.3805C50.4311 25.5774 49.9645 24.863 49.3194 24.3342C49.4266 24.039 49.4816 23.7275 49.4819 23.4134C49.4819 21.0436 49.834 19.3509 48.1278 18.3759V16.6426C48.1264 13.6457 47.0208 10.7545 45.0224 8.52121C43.0239 6.28796 40.2727 4.86931 37.2944 4.53633V1.74674C37.2944 1.3876 37.1518 1.04316 36.8978 0.789204C36.6439 0.535249 36.2994 0.392578 35.9403 0.392578L30.5236 0.392578C30.1645 0.392578 29.82 0.535249 29.5661 0.789204C29.3121 1.04316 29.1694 1.3876 29.1694 1.74674V4.53633C26.1911 4.86931 23.4399 6.28796 21.4415 8.52121C19.4431 10.7545 18.3375 13.6457 18.3361 16.6426V18.3759C17.9268 18.6122 17.5864 18.9516 17.3488 19.3602C17.1113 19.7688 16.9848 20.2324 16.9819 20.7051C16.9819 23.6165 16.9819 23.7113 17.158 24.3342C16.513 24.863 16.0463 25.5774 15.8214 26.3805C15.5964 27.1836 15.6241 28.0365 15.9007 28.8233C16.1773 29.6101 16.6893 30.2928 17.3673 30.7785C18.0453 31.2643 18.8563 31.5296 19.6903 31.5384H21.0444C21.0397 34.3203 21.9965 37.0184 23.7528 39.1759V42.7645L10.6715 47.3822C7.76364 48.4081 5.24584 50.3113 3.4655 52.829C1.68516 55.3467 0.730046 58.3548 0.731936 61.4384V64.0384C0.731936 64.3976 0.874607 64.742 1.12856 64.9959C1.38252 65.2499 1.72696 65.3926 2.0861 65.3926C2.44525 65.3926 2.78969 65.2499 3.04364 64.9959C3.2976 64.742 3.44027 64.3976 3.44027 64.0384V61.4384C3.43895 58.917 4.21968 56.4573 5.67487 54.3982C7.13006 52.3391 9.18807 50.782 11.5653 49.9415L15.6278 48.5061V52.5686C14.8032 53.0447 14.1186 53.7298 13.6431 54.5547C13.1677 55.3797 12.918 56.3154 12.9194 57.2676V64.0384C12.9194 64.3976 13.0621 64.742 13.3161 64.9959C13.57 65.2499 13.9145 65.3926 14.2736 65.3926C14.6328 65.3926 14.9772 65.2499 15.2311 64.9959C15.4851 64.742 15.6278 64.3976 15.6278 64.0384V57.2676C15.6278 56.5493 15.9131 55.8604 16.421 55.3525C16.9289 54.8446 17.6178 54.5592 18.3361 54.5592H42.3049C43.0395 55.3549 43.8669 56.0596 44.7694 56.6582C47.234 58.1478 46.7736 60.3009 46.7736 64.0384C46.7736 64.3976 46.9163 64.742 47.1702 64.9959C47.4242 65.2499 47.7686 65.3926 48.1278 65.3926C48.4869 65.3926 48.8314 65.2499 49.0853 64.9959C49.3393 64.742 49.4819 64.3976 49.4819 64.0384C49.4819 60.2467 49.9965 56.6447 46.2184 54.3832C44.7951 53.4282 43.6157 52.1526 42.775 50.6588C41.9344 49.1651 41.456 47.4949 41.3783 45.7827C41.3006 44.0704 41.6257 42.3638 42.3276 40.8C43.0295 39.2363 44.0885 37.859 45.4194 36.779V43.7259C45.4194 44.8363 45.9069 44.8092 51.5809 47.6395C51.7699 47.7347 51.9786 47.7843 52.1903 47.7843C52.4019 47.7843 52.6106 47.7347 52.7997 47.6395C58.3653 44.8634 58.9611 44.8363 58.9611 43.7259V39.1217C60.1893 39.8938 61.2045 40.9613 61.9138 42.2268C62.6231 43.4923 63.0039 44.9154 63.0214 46.366C63.0389 47.8166 62.6925 49.2485 62.014 50.5307C61.3355 51.8129 60.3464 52.9047 59.1372 53.7061C54.5736 56.7665 54.8986 58.0936 54.8986 64.0384C54.8986 64.3976 55.0413 64.742 55.2952 64.9959C55.5492 65.2499 55.8936 65.3926 56.2528 65.3926C56.6119 65.3926 56.9564 65.2499 57.2103 64.9959C57.4643 64.742 57.6069 64.3976 57.6069 64.0384C57.6069 57.2676 57.2549 58.6217 61.3986 55.3853C63.2132 58.5405 63.0236 60.9238 63.0236 64.0384C63.0236 64.3976 63.1663 64.742 63.4202 64.9959C63.6742 65.2499 64.0186 65.3926 64.3778 65.3926C64.7369 65.3926 65.0814 65.2499 65.3353 64.9959C65.5893 64.742 65.7319 64.3976 65.7319 64.0384C65.7319 60.4905 65.9351 57.3759 63.3622 53.3947C64.4386 52.0001 65.1765 50.3745 65.5175 48.646C65.8586 46.9176 65.7935 45.1336 65.3274 43.4346C64.8613 41.7357 64.0069 40.1682 62.8316 38.8557C61.6564 37.5433 60.1923 36.5218 58.5549 35.8717ZM39.0413 48.5061C39.3343 49.6788 39.7902 50.8047 40.3955 51.8509H36.184L39.0413 48.5061ZM33.2319 51.1197L26.4611 43.2249V41.6676C28.302 42.8978 30.4433 43.6033 32.6549 43.7083C34.8666 43.8133 37.0651 43.3137 39.0142 42.2634C38.1611 46.0145 40.3549 42.8051 33.2319 51.1197ZM23.7528 26.1217H42.7111V31.5384C42.7111 34.0524 41.7124 36.4635 39.9347 38.2412C38.157 40.0189 35.746 41.0176 33.2319 41.0176C30.7179 41.0176 28.3068 40.0189 26.5292 38.2412C24.7515 36.4635 23.7528 34.0524 23.7528 31.5384V26.1217ZM46.7736 28.8301H45.4194V26.1217H46.7736C47.1328 26.1217 47.4772 26.2644 47.7311 26.5184C47.9851 26.7723 48.1278 27.1168 48.1278 27.4759C48.1278 27.8351 47.9851 28.1795 47.7311 28.4335C47.4772 28.6874 47.1328 28.8301 46.7736 28.8301ZM31.8778 3.10091H34.5861V11.2259H31.8778V3.10091ZM21.0444 16.6426C21.0471 14.3651 21.8697 12.1647 23.3617 10.4439C24.8536 8.72316 26.9153 7.5971 29.1694 7.27174V12.5801C29.1694 12.9392 29.3121 13.2837 29.5661 13.5376C29.82 13.7916 30.1645 13.9342 30.5236 13.9342H35.9403C36.2994 13.9342 36.6439 13.7916 36.8978 13.5376C37.1518 13.2837 37.2944 12.9392 37.2944 12.5801V7.27174C39.5486 7.5971 41.6102 8.72316 43.1022 10.4439C44.5942 12.1647 45.4168 14.3651 45.4194 16.6426V17.9967H42.7111V16.6426C42.7111 16.2834 42.5684 15.939 42.3145 15.685C42.0605 15.4311 41.7161 15.2884 41.3569 15.2884C40.9978 15.2884 40.6534 15.4311 40.3994 15.685C40.1454 15.939 40.0028 16.2834 40.0028 16.6426V17.9967H26.4611V16.6426C26.4611 16.2834 26.3184 15.939 26.0645 15.685C25.8105 15.4311 25.4661 15.2884 25.1069 15.2884C24.7478 15.2884 24.4034 15.4311 24.1494 15.685C23.8954 15.939 23.7528 16.2834 23.7528 16.6426V17.9967H21.0444V16.6426ZM19.6903 20.7051H46.7736V23.4134H19.6903V20.7051ZM19.6903 28.8301C19.3311 28.8301 18.9867 28.6874 18.7327 28.4335C18.4788 28.1795 18.3361 27.8351 18.3361 27.4759C18.3361 27.1168 18.4788 26.7723 18.7327 26.5184C18.9867 26.2644 19.3311 26.1217 19.6903 26.1217H21.0444V28.8301H19.6903ZM24.6871 45.3103L30.2934 51.8509H23.7528V45.6353L24.6871 45.3103ZM18.3361 47.5582L21.0444 46.5967V51.8509H18.3361V47.5582Z" fill="#FE9A3C"/>
</g>
<defs>
<clipPath id="clip0_15_275">
<rect width="65" height="65" fill="white" transform="translate(0.731934 0.392578)"/>
</clipPath>
</defs>
</svg>
