<svg width="59" height="59" viewBox="0 0 59 59" fill="none" xmlns="http://www.w3.org/2000/svg">
<path d="M30.7681 18.6137C33.4375 18.6137 35.6015 16.4497 35.6015 13.7804C35.6015 11.111 33.4375 8.94702 30.7681 8.94702C28.0988 8.94702 25.9348 11.111 25.9348 13.7804C25.9348 16.4497 28.0988 18.6137 30.7681 18.6137Z" fill="#FE9A3C"/>
<path d="M47.6847 18.6137C50.354 18.6137 52.518 16.4497 52.518 13.7804C52.518 11.111 50.354 8.94702 47.6847 8.94702C45.0153 8.94702 42.8513 11.111 42.8513 13.7804C42.8513 16.4497 45.0153 18.6137 47.6847 18.6137Z" fill="#FE9A3C"/>
<path d="M13.8514 18.6137C16.5208 18.6137 18.6847 16.4497 18.6847 13.7804C18.6847 11.111 16.5208 8.94702 13.8514 8.94702C11.182 8.94702 9.01807 11.111 9.01807 13.7804C9.01807 16.4497 11.182 18.6137 13.8514 18.6137Z" fill="#FE9A3C"/>
</svg>
