<svg width="65" height="66" viewBox="0 0 65 66" fill="none" xmlns="http://www.w3.org/2000/svg">
<g clip-path="url(#clip0_9_239)">
<mask id="mask0_9_239" style="mask-type:luminance" maskUnits="userSpaceOnUse" x="0" y="0" width="65" height="66">
<path d="M64.8582 0.44519H0.858154V65.4452H64.8582V0.44519Z" fill="white"/>
</mask>
<g mask="url(#mask0_9_239)">
<path d="M43.8582 1.46082H35.8582V15.6795H43.8582V1.46082Z" fill="#FE9A3C"/>
<path d="M43.8581 16.6952H35.8581C35.593 16.6952 35.3387 16.5882 35.1511 16.3977C34.9635 16.2072 34.8584 15.9489 34.8584 15.6795V1.46082C34.8584 1.19146 34.9635 0.933128 35.1511 0.74266C35.3387 0.552193 35.593 0.44519 35.8581 0.44519H43.8581C44.1236 0.44519 44.3779 0.552193 44.5652 0.74266C44.7528 0.933128 44.8582 1.19146 44.8582 1.46082V15.6795C44.8582 15.9489 44.7528 16.2072 44.5652 16.3977C44.3779 16.5882 44.1236 16.6952 43.8581 16.6952ZM36.8582 14.6639H42.8584V2.47644H36.8582V14.6639Z" fill="#FE9A3C"/>
<path d="M41.8582 52.242H24.0156C23.7505 52.242 23.4961 52.1353 23.3085 51.9447C23.121 51.7541 23.0157 51.4959 23.0157 51.2266C23.0157 50.957 23.121 50.6987 23.3085 50.5082C23.4961 50.318 23.7505 50.2109 24.0156 50.2109H41.8582C42.1233 50.2109 42.3777 50.1038 42.5653 49.9133C42.7529 49.7231 42.8583 49.4648 42.8583 49.1952V21.277L25.8844 8.80765L8.85815 21.277V49.1952C8.85815 49.4648 8.96352 49.7231 9.15104 49.9133C9.33859 50.1038 9.59294 50.2109 9.85817 50.2109H15.8581C16.1234 50.2109 16.3777 50.318 16.5653 50.5082C16.7528 50.6987 16.8582 50.957 16.8582 51.2266C16.8582 51.4959 16.7528 51.7541 16.5653 51.9447C16.3777 52.1353 16.1234 52.242 15.8581 52.242H9.85817C9.06252 52.242 8.29943 51.9211 7.73684 51.3498C7.17421 50.7785 6.85815 50.0033 6.85815 49.1952V20.7578C6.85812 20.5968 6.89571 20.4382 6.96786 20.295C7.04005 20.1517 7.14467 20.028 7.27314 19.9338L25.3007 6.7307C25.4711 6.60562 25.676 6.53833 25.8863 6.53833C26.0966 6.53833 26.3015 6.60562 26.4719 6.7307L44.4445 19.9338C44.5725 20.0281 44.6769 20.1519 44.749 20.2952C44.8208 20.4384 44.8585 20.5969 44.8582 20.7578V49.1952C44.8582 50.0033 44.5422 50.7785 43.9793 51.3498C43.4168 51.9211 42.6539 52.242 41.8582 52.242Z" fill="#FE9A3C"/>
<path d="M61.8583 30.9139H21.8582C20.7536 30.9139 19.8582 31.8234 19.8582 32.9452V49.1952C19.8582 50.317 20.7536 51.2266 21.8582 51.2266H61.8583C62.9628 51.2266 63.8581 50.317 63.8581 49.1952V32.9452C63.8581 31.8234 62.9628 30.9139 61.8583 30.9139Z" fill="#FE9A3C"/>
<path d="M61.8583 48.1795H21.8582C21.3277 48.1795 20.819 47.9657 20.444 47.5846C20.0689 47.2038 19.8582 46.6869 19.8582 46.1484V49.1952C19.8582 49.734 20.0689 50.2506 20.444 50.6314C20.819 51.0125 21.3277 51.2267 21.8582 51.2267H61.8583C62.3884 51.2267 62.8974 51.0125 63.2723 50.6314C63.6476 50.2506 63.8581 49.734 63.8581 49.1952V46.1484C63.8581 46.6869 63.6476 47.2038 63.2723 47.5846C62.8974 47.9657 62.3884 48.1795 61.8583 48.1795Z" fill="#FE9A3C"/>
<path d="M61.8582 52.242H21.8582C21.0625 52.242 20.2994 51.9211 19.7368 51.3498C19.1742 50.7781 18.8582 50.0032 18.8582 49.1952V32.9452C18.8582 32.1371 19.1742 31.3621 19.7368 30.7907C20.2994 30.2193 21.0625 29.8983 21.8582 29.8983H43.8581C44.1235 29.8983 44.3778 30.0053 44.5651 30.1958C44.7527 30.3862 44.8582 30.6445 44.8582 30.9139C44.8582 31.1833 44.7527 31.4416 44.5651 31.6321C44.3778 31.8226 44.1235 31.9295 43.8581 31.9295H21.8582C21.5929 31.9295 21.3386 32.0365 21.151 32.227C20.9635 32.4175 20.8582 32.6758 20.8582 32.9452V49.1952C20.8582 49.4644 20.9635 49.7227 21.151 49.9133C21.3386 50.1038 21.5929 50.2109 21.8582 50.2109H61.8582C62.1233 50.2109 62.3776 50.1038 62.5653 49.9133C62.7529 49.7227 62.858 49.4644 62.858 49.1952V32.9452C62.858 32.6758 62.7529 32.4175 62.5653 32.227C62.3776 32.0365 62.1233 31.9295 61.8582 31.9295H47.8581C47.593 31.9295 47.3387 31.8226 47.151 31.6321C46.9634 31.4416 46.858 31.1833 46.858 30.9139C46.858 30.6445 46.9634 30.3862 47.151 30.1958C47.3387 30.0053 47.593 29.8983 47.8581 29.8983H61.8582C62.6539 29.8983 63.4168 30.2193 63.9793 30.7907C64.5422 31.3621 64.8582 32.1371 64.8582 32.9452V49.1952C64.8582 50.0032 64.5422 50.7781 63.9793 51.3498C63.4168 51.9211 62.6539 52.242 61.8582 52.242Z" fill="#FE9A3C"/>
<path d="M44.8581 65.4452C44.593 65.4452 44.3387 65.3382 44.151 65.1476C43.9634 64.9574 43.858 64.6991 43.858 64.4295V52.242H39.858V64.4295C39.858 64.6991 39.7526 64.9574 39.5653 65.1476C39.3776 65.3382 39.1233 65.4452 38.8579 65.4452C38.5928 65.4452 38.3385 65.3382 38.1509 65.1476C37.9636 64.9574 37.8582 64.6991 37.8582 64.4295V51.2267C37.8582 50.9571 37.9636 50.6988 38.1509 50.5082C38.3385 50.318 38.5928 50.2109 38.8579 50.2109H44.8581C45.1232 50.2109 45.3775 50.318 45.5651 50.5082C45.7527 50.6988 45.8582 50.9571 45.8582 51.2267V64.4295C45.8582 64.6991 45.7527 64.9574 45.5651 65.1476C45.3775 65.3382 45.1232 65.4452 44.8581 65.4452Z" fill="#FE9A3C"/>
<path d="M49.8582 20.7577L46.858 25.8358L25.8582 10.6014L4.85815 25.8358L1.85815 20.7577L25.8582 3.49207L49.8582 20.7577Z" fill="#FE9A3C"/>
<path d="M48.1186 23.703L46.8584 25.8359L25.8584 10.6015L4.85839 25.8359L3.59839 23.703L25.8584 7.55457L48.1186 23.703Z" fill="#FE9A3C"/>
<path d="M46.2769 26.6622L25.8583 11.8494L5.43958 26.6622C5.32727 26.7438 5.19958 26.8008 5.0645 26.8297C4.92943 26.8586 4.78994 26.8589 4.6548 26.8304C4.51966 26.8019 4.39176 26.7453 4.27922 26.6641C4.16667 26.583 4.07188 26.479 4.00081 26.3588L1.00082 21.2807C0.870951 21.061 0.827641 20.7996 0.879568 20.5489C0.931496 20.2981 1.07482 20.0766 1.28081 19.9287L25.2808 2.66304C25.4497 2.54171 25.6515 2.47656 25.8583 2.47656C26.0652 2.47656 26.2669 2.54171 26.4358 2.66304L50.4359 19.9287C50.6417 20.0766 50.7852 20.2981 50.8371 20.5489C50.889 20.7996 50.8455 21.061 50.7158 21.2807L47.7159 26.3588C47.6448 26.479 47.5499 26.583 47.4374 26.6641C47.3249 26.7453 47.1969 26.8019 47.0618 26.8304C46.9267 26.8589 46.7873 26.8586 46.6522 26.8297C46.5171 26.8008 46.3894 26.7438 46.2769 26.6622ZM26.4396 9.7775L46.5646 24.3771L48.5307 21.0497L25.8583 4.73617L3.19207 21.042L5.15831 24.3695L25.2833 9.76987C25.4528 9.64901 25.6551 9.58459 25.8622 9.58548C26.0694 9.5864 26.2711 9.6526 26.4396 9.77497V9.7775ZM29.3582 43.1016H26.8582C26.5929 43.1016 26.3386 42.9945 26.1511 42.8039C25.9635 42.6134 25.8582 42.3551 25.8582 42.0859V37.0076C25.8582 36.7384 25.9635 36.4801 26.1511 36.2896C26.3386 36.099 26.5929 35.9919 26.8582 35.9919H29.3582C30.2864 35.9919 31.1766 36.3665 31.833 37.0333C32.4894 37.6997 32.8582 38.6039 32.8582 39.5467C32.8582 40.4896 32.4894 41.3938 31.833 42.0602C31.1766 42.727 30.2864 43.1016 29.3582 43.1016ZM27.8581 41.0701H29.3582C29.756 41.0701 30.1375 40.9097 30.4188 40.624C30.7001 40.3384 30.8582 39.9508 30.8582 39.5467C30.8582 39.1427 30.7001 38.7551 30.4188 38.4695C30.1375 38.1838 29.756 38.0234 29.3582 38.0234H27.8581V41.0701Z" fill="white"/>
<path d="M26.8581 46.1484C26.5929 46.1484 26.3386 46.0413 26.151 45.8507C25.9635 45.6602 25.8582 45.4019 25.8582 45.1327V39.0387C25.8582 38.7695 25.9635 38.5112 26.151 38.3207C26.3386 38.1304 26.5929 38.0234 26.8581 38.0234C27.1234 38.0234 27.3777 38.1304 27.5652 38.3207C27.7528 38.5112 27.8581 38.7695 27.8581 39.0387V45.1327C27.8581 45.4019 27.7528 45.6602 27.5652 45.8507C27.3777 46.0413 27.1234 46.1484 26.8581 46.1484ZM30.8582 46.1484C30.6483 46.1484 30.4438 46.0813 30.2734 45.9564C30.1032 45.8319 29.9758 45.6561 29.9095 45.4539L28.9095 42.4071C28.8679 42.2805 28.8513 42.1468 28.8607 42.0137C28.87 41.8806 28.905 41.7509 28.9637 41.6315C29.0224 41.5122 29.1037 41.4058 29.203 41.3185C29.3022 41.2309 29.4174 41.1642 29.542 41.1222C29.6666 41.0801 29.7981 41.0633 29.9291 41.0726C30.0601 41.0821 30.188 41.1177 30.3054 41.1772C30.4229 41.2371 30.5277 41.3196 30.6137 41.4201C30.6998 41.5211 30.7654 41.638 30.807 41.7646L31.807 44.8114C31.8571 44.964 31.8708 45.1268 31.8468 45.2859C31.823 45.445 31.7622 45.5959 31.6695 45.7265C31.5769 45.8572 31.455 45.9633 31.3139 46.0368C31.1728 46.1101 31.0167 46.1484 30.8582 46.1484ZM39.8581 46.1484H35.8581C35.593 46.1484 35.3386 46.0413 35.151 45.8507C34.9634 45.6602 34.8583 45.4019 34.8583 45.1327V37.0077C34.8583 36.7384 34.9634 36.4801 35.151 36.2896C35.3386 36.099 35.593 35.9919 35.8581 35.9919H39.8581C40.1235 35.9919 40.3778 36.099 40.5651 36.2896C40.7527 36.4801 40.8581 36.7384 40.8581 37.0077C40.8581 37.2769 40.7527 37.5352 40.5651 37.7257C40.3778 37.9163 40.1235 38.0234 39.8581 38.0234H36.8581V44.1169H39.8581C40.1235 44.1169 40.3778 44.224 40.5651 44.4146C40.7527 44.6051 40.8581 44.8634 40.8581 45.1327C40.8581 45.4019 40.7527 45.6602 40.5651 45.8507C40.3778 46.0413 40.1235 46.1484 39.8581 46.1484Z" fill="white"/>
<path d="M39.8581 42.0859H35.8581C35.593 42.0859 35.3387 41.9788 35.1511 41.7882C34.9635 41.5977 34.8584 41.3394 34.8584 41.0702C34.8584 40.8009 34.9635 40.5426 35.1511 40.3521C35.3387 40.1615 35.593 40.0544 35.8581 40.0544H39.8581C40.1236 40.0544 40.3779 40.1615 40.5652 40.3521C40.7528 40.5426 40.8582 40.8009 40.8582 41.0702C40.8582 41.3394 40.7528 41.5977 40.5652 41.7882C40.3779 41.9788 40.1236 42.0859 39.8581 42.0859ZM48.8582 46.1484C48.6888 46.148 48.5221 46.1042 48.3738 46.0208C48.2256 45.9373 48.1007 45.8169 48.0107 45.6708L44.8582 40.5484V45.1327C44.8582 45.4019 44.7528 45.6602 44.5652 45.8507C44.3779 46.0413 44.1236 46.1484 43.8581 46.1484C43.5931 46.1484 43.3387 46.0413 43.1511 45.8507C42.9635 45.6602 42.8584 45.4019 42.8584 45.1327V37.0077C42.8584 36.7873 42.9291 36.5728 43.0598 36.397C43.1905 36.2212 43.3738 36.0929 43.5826 36.0323C43.7911 35.9714 44.0134 35.9813 44.2162 36.06C44.4186 36.1391 44.5904 36.2827 44.7056 36.4695L47.8581 41.5919V37.0077C47.8581 36.7384 47.9636 36.4801 48.1512 36.2896C48.3388 36.099 48.5931 35.9919 48.8582 35.9919C49.1233 35.9919 49.3776 36.099 49.5653 36.2896C49.7529 36.4801 49.8583 36.7384 49.8583 37.0077V45.1327C49.8583 45.4019 49.7529 45.6602 49.5653 45.8507C49.3776 46.0413 49.1233 46.1484 48.8582 46.1484ZM58.8584 38.0234H52.8582C52.5931 38.0234 52.3388 37.9163 52.1512 37.7257C51.9636 37.5352 51.8581 37.2769 51.8581 37.0077C51.8581 36.7384 51.9636 36.4801 52.1512 36.2896C52.3388 36.099 52.5931 35.9919 52.8582 35.9919H58.8584C59.1235 35.9919 59.3778 36.099 59.5654 36.2896C59.7527 36.4801 59.8581 36.7384 59.8581 37.0077C59.8581 37.2769 59.7527 37.5352 59.5654 37.7257C59.3778 37.9163 59.1235 38.0234 58.8584 38.0234Z" fill="white"/>
<path d="M55.858 46.1484C55.5929 46.1484 55.3386 46.0413 55.151 45.8507C54.9633 45.6602 54.8579 45.4019 54.8579 45.1327V37.0077C54.8579 36.7384 54.9633 36.4801 55.151 36.2896C55.3386 36.099 55.5929 35.9919 55.858 35.9919C56.1234 35.9919 56.3777 36.099 56.565 36.2896C56.7526 36.4801 56.8581 36.7384 56.8581 37.0077V45.1327C56.8581 45.4019 56.7526 45.6602 56.565 45.8507C56.3777 46.0413 56.1234 46.1484 55.858 46.1484Z" fill="white"/>
</g>
</g>
<defs>
<clipPath id="clip0_9_239">
<rect width="64" height="65" fill="white" transform="translate(0.858154 0.44519)"/>
</clipPath>
</defs>
</svg>
